REM DIRINDEX 1\2,1\4,1\3\5,1\3\6,1\3\7
REM DIRNAME folder01,folder02,folder03,folder04,folder05,folder06,folder07
TITLE ""
FILE "CD3Track53.mp3" MP3
  TRACK 01 AUDIO
    TITLE "0:"
    INDEX 01 00:00:00
  TRACK 02 AUDIO
    TITLE "5:cjc081_3271"
    INDEX 01 00:00:27
  TRACK 03 AUDIO
    TITLE "0:"
    INDEX 01 00:01:71
  TRACK 04 AUDIO
    TITLE "6:cjc081_3272"
    INDEX 01 00:02:45
  TRACK 05 AUDIO
    TITLE "0:"
    INDEX 01 00:03:57
  TRACK 06 AUDIO
    TITLE "5:cjc081_3273"
    INDEX 01 00:04:35
  TRACK 07 AUDIO
    TITLE "0:"
    INDEX 01 00:05:44
  TRACK 08 AUDIO
    TITLE "6:cjc081_3274"
    INDEX 01 00:06:18
  TRACK 09 AUDIO
    TITLE "0:"
    INDEX 01 00:07:37
  TRACK 10 AUDIO
    TITLE "5:cjc081_3275"
    INDEX 01 00:08:07
  TRACK 11 AUDIO
    TITLE "0:"
    INDEX 01 00:09:30
  TRACK 12 AUDIO
    TITLE "6:cjc081_3276"
    INDEX 01 00:10:02
  TRACK 13 AUDIO
    TITLE "0:"
    INDEX 01 00:12:71
  TRACK 14 AUDIO
    TITLE "5:cjc081_3277"
    INDEX 01 00:13:41
  TRACK 15 AUDIO
    TITLE "0:"
    INDEX 01 00:14:64
  TRACK 16 AUDIO
    TITLE "6:cjc081_3278"
    INDEX 01 00:15:36
  TRACK 17 AUDIO
    TITLE "0:"
    INDEX 01 00:17:47
  TRACK 18 AUDIO
    TITLE "5:cjc081_3279"
    INDEX 01 00:18:17
  TRACK 19 AUDIO
    TITLE "0:"
    INDEX 01 00:19:30
  TRACK 20 AUDIO
    TITLE "6:cjc081_3280"
    INDEX 01 00:20:02
  TRACK 21 AUDIO
    TITLE "0:"
    INDEX 01 00:21:39
  TRACK 22 AUDIO
    TITLE "5:cjc081_3281"
    INDEX 01 00:22:07
  TRACK 23 AUDIO
    TITLE "0:"
    INDEX 01 00:23:51
  TRACK 24 AUDIO
    TITLE "6:cjc081_3282"
    INDEX 01 00:24:22
  TRACK 25 AUDIO
    TITLE "0:"
    INDEX 01 00:26:05
  TRACK 26 AUDIO
    TITLE "5:cjc081_3283"
    INDEX 01 00:26:50
  TRACK 27 AUDIO
    TITLE "0:"
    INDEX 01 00:27:73
  TRACK 28 AUDIO
    TITLE "6:cjc081_3284"
    INDEX 01 00:28:43
  TRACK 29 AUDIO
    TITLE "0:"
    INDEX 01 00:30:55
  TRACK 30 AUDIO
    TITLE "5:cjc081_3285"
    INDEX 01 00:31:24
  TRACK 31 AUDIO
    TITLE "0:"
    INDEX 01 00:32:56
  TRACK 32 AUDIO
    TITLE "6:cjc081_3286"
    INDEX 01 00:33:26
  TRACK 33 AUDIO
    TITLE "0:"
    INDEX 01 00:35:39
  TRACK 34 AUDIO
    TITLE "5:cjc081_3287"
    INDEX 01 00:36:07
  TRACK 35 AUDIO
    TITLE "0:"
    INDEX 01 00:37:40
  TRACK 36 AUDIO
    TITLE "6:cjc081_3288"
    INDEX 01 00:38:12
  TRACK 37 AUDIO
    TITLE "0:"
    INDEX 01 00:39:39
  TRACK 38 AUDIO
    TITLE "5:cjc081_3289"
    INDEX 01 00:40:09
  TRACK 39 AUDIO
    TITLE "0:"
    INDEX 01 00:41:51
  TRACK 40 AUDIO
    TITLE "6:cjc081_3290"
    INDEX 01 00:42:16
  TRACK 41 AUDIO
    TITLE "0:"
    INDEX 01 00:43:40
  TRACK 42 AUDIO
    TITLE "5:cjc081_3291"
    INDEX 01 00:44:12
  TRACK 43 AUDIO
    TITLE "0:"
    INDEX 01 00:45:43
  TRACK 44 AUDIO
    TITLE "6:cjc081_3292"
    INDEX 01 00:46:11
  TRACK 45 AUDIO
    TITLE "0:"
    INDEX 01 00:48:59
  TRACK 46 AUDIO
    TITLE "5:cjc081_3293"
    INDEX 01 00:49:25
  TRACK 47 AUDIO
    TITLE "0:"
    INDEX 01 00:50:52
  TRACK 48 AUDIO
    TITLE "6:cjc081_3294"
    INDEX 01 00:51:22
  TRACK 49 AUDIO
    TITLE "0:"
    INDEX 01 00:53:09
  TRACK 50 AUDIO
    TITLE "5:cjc081_3295"
    INDEX 01 00:53:55
  TRACK 51 AUDIO
    TITLE "0:"
    INDEX 01 00:55:28
  TRACK 52 AUDIO
    TITLE "6:cjc081_3296"
    INDEX 01 00:55:71
  TRACK 53 AUDIO
    TITLE "0:"
    INDEX 01 00:58:44
  TRACK 54 AUDIO
    TITLE "5:cjc081_3297"
    INDEX 01 00:59:12
  TRACK 55 AUDIO
    TITLE "0:"
    INDEX 01 01:02:12
  TRACK 56 AUDIO
    TITLE "6:cjc081_3298"
    INDEX 01 01:03:02
  TRACK 57 AUDIO
    TITLE "0:"
    INDEX 01 01:05:09
  TRACK 58 AUDIO
    TITLE "5:cjc081_3299"
    INDEX 01 01:05:58
  TRACK 59 AUDIO
    TITLE "0:"
    INDEX 01 01:07:14
  TRACK 60 AUDIO
    TITLE "6:cjc081_3300"
    INDEX 01 01:07:63
  TRACK 61 AUDIO
    TITLE "0:"
    INDEX 01 01:10:33
  TRACK 62 AUDIO
    TITLE "7:cjc081_3301"
    INDEX 01 01:11:72
  TRACK 63 AUDIO
    TITLE "0:"
    INDEX 01 01:22:31
